<svg width="128" height="61" viewBox="0 0 128 61" fill="none" xmlns="http://www.w3.org/2000/svg">
<path d="M11.628 20H9.576L3.402 10.658V20H1.35V7.472H3.402L9.576 16.796V7.472H11.628V20ZM13.6387 14.996C13.6387 14 13.8427 13.118 14.2507 12.35C14.6707 11.582 15.2347 10.988 15.9427 10.568C16.6627 10.136 17.4547 9.92 18.3187 9.92C19.0987 9.92 19.7767 10.076 20.3527 10.388C20.9407 10.688 21.4087 11.066 21.7567 11.522V10.082H23.8267V20H21.7567V18.524C21.4087 18.992 20.9347 19.382 20.3347 19.694C19.7347 20.006 19.0507 20.162 18.2827 20.162C17.4307 20.162 16.6507 19.946 15.9427 19.514C15.2347 19.07 14.6707 18.458 14.2507 17.678C13.8427 16.886 13.6387 15.992 13.6387 14.996ZM21.7567 15.032C21.7567 14.348 21.6127 13.754 21.3247 13.25C21.0487 12.746 20.6827 12.362 20.2267 12.098C19.7707 11.834 19.2787 11.702 18.7507 11.702C18.2227 11.702 17.7307 11.834 17.2747 12.098C16.8187 12.35 16.4467 12.728 16.1587 13.232C15.8827 13.724 15.7447 14.312 15.7447 14.996C15.7447 15.68 15.8827 16.28 16.1587 16.796C16.4467 17.312 16.8187 17.708 17.2747 17.984C17.7427 18.248 18.2347 18.38 18.7507 18.38C19.2787 18.38 19.7707 18.248 20.2267 17.984C20.6827 17.72 21.0487 17.336 21.3247 16.832C21.6127 16.316 21.7567 15.716 21.7567 15.032ZM28.9159 11.756V17.246C28.9159 17.618 28.9999 17.888 29.1679 18.056C29.3479 18.212 29.6479 18.29 30.0679 18.29H31.3279V20H29.7079C28.7839 20 28.0759 19.784 27.5839 19.352C27.0919 18.92 26.8459 18.218 26.8459 17.246V11.756H25.6759V10.082H26.8459V7.616H28.9159V10.082H31.3279V11.756H28.9159ZM42.2011 10.082V20H40.1491V18.83C39.8251 19.238 39.3991 19.562 38.8711 19.802C38.3551 20.03 37.8031 20.144 37.2151 20.144C36.4351 20.144 35.7331 19.982 35.1091 19.658C34.4971 19.334 34.0111 18.854 33.6511 18.218C33.3031 17.582 33.1291 16.814 33.1291 15.914V10.082H35.1631V15.608C35.1631 16.496 35.3851 17.18 35.8291 17.66C36.2731 18.128 36.8791 18.362 37.6471 18.362C38.4151 18.362 39.0211 18.128 39.4651 17.66C39.9211 17.18 40.1491 16.496 40.1491 15.608V10.082H42.2011ZM46.9606 11.522C47.2606 11.018 47.6566 10.628 48.1486 10.352C48.6526 10.064 49.2466 9.92 49.9306 9.92V12.044H49.4086C48.6046 12.044 47.9926 12.248 47.5726 12.656C47.1646 13.064 46.9606 13.772 46.9606 14.78V20H44.9086V10.082H46.9606V11.522ZM51.1328 14.996C51.1328 14 51.3368 13.118 51.7448 12.35C52.1648 11.582 52.7288 10.988 53.4368 10.568C54.1568 10.136 54.9488 9.92 55.8128 9.92C56.5928 9.92 57.2708 10.076 57.8468 10.388C58.4348 10.688 58.9028 11.066 59.2508 11.522V10.082H61.3208V20H59.2508V18.524C58.9028 18.992 58.4288 19.382 57.8288 19.694C57.2288 20.006 56.5448 20.162 55.7768 20.162C54.9248 20.162 54.1448 19.946 53.4368 19.514C52.7288 19.07 52.1648 18.458 51.7448 17.678C51.3368 16.886 51.1328 15.992 51.1328 14.996ZM59.2508 15.032C59.2508 14.348 59.1068 13.754 58.8188 13.25C58.5428 12.746 58.1768 12.362 57.7208 12.098C57.2648 11.834 56.7728 11.702 56.2448 11.702C55.7168 11.702 55.2248 11.834 54.7688 12.098C54.3128 12.35 53.9408 12.728 53.6528 13.232C53.3768 13.724 53.2388 14.312 53.2388 14.996C53.2388 15.68 53.3768 16.28 53.6528 16.796C53.9408 17.312 54.3128 17.708 54.7688 17.984C55.2368 18.248 55.7288 18.38 56.2448 18.38C56.7728 18.38 57.2648 18.248 57.7208 17.984C58.1768 17.72 58.5428 17.336 58.8188 16.832C59.1068 16.316 59.2508 15.716 59.2508 15.032ZM66.068 6.68V20H64.016V6.68H66.068ZM82.1859 11.216C82.1859 11.852 82.0359 12.452 81.7359 13.016C81.4359 13.58 80.9559 14.042 80.2959 14.402C79.6359 14.75 78.7899 14.924 77.7579 14.924H75.4899V20H73.4379V7.49H77.7579C78.7179 7.49 79.5279 7.658 80.1879 7.994C80.8599 8.318 81.3579 8.762 81.6819 9.326C82.0179 9.89 82.1859 10.52 82.1859 11.216ZM77.7579 13.25C78.5379 13.25 79.1199 13.076 79.5039 12.728C79.8879 12.368 80.0799 11.864 80.0799 11.216C80.0799 9.848 79.3059 9.164 77.7579 9.164H75.4899V13.25H77.7579ZM86.195 6.68V20H84.143V6.68H86.195ZM88.2051 14.996C88.2051 14 88.4091 13.118 88.8171 12.35C89.2371 11.582 89.8011 10.988 90.5091 10.568C91.2291 10.136 92.0211 9.92 92.8851 9.92C93.6651 9.92 94.3431 10.076 94.9191 10.388C95.5071 10.688 95.9751 11.066 96.3231 11.522V10.082H98.3931V20H96.3231V18.524C95.9751 18.992 95.5011 19.382 94.9011 19.694C94.3011 20.006 93.6171 20.162 92.8491 20.162C91.9971 20.162 91.2171 19.946 90.5091 19.514C89.8011 19.07 89.2371 18.458 88.8171 17.678C88.4091 16.886 88.2051 15.992 88.2051 14.996ZM96.3231 15.032C96.3231 14.348 96.1791 13.754 95.8911 13.25C95.6151 12.746 95.2491 12.362 94.7931 12.098C94.3371 11.834 93.8451 11.702 93.3171 11.702C92.7891 11.702 92.2971 11.834 91.8411 12.098C91.3851 12.35 91.0131 12.728 90.7251 13.232C90.4491 13.724 90.3111 14.312 90.3111 14.996C90.3111 15.68 90.4491 16.28 90.7251 16.796C91.0131 17.312 91.3851 17.708 91.8411 17.984C92.3091 18.248 92.8011 18.38 93.3171 18.38C93.8451 18.38 94.3371 18.248 94.7931 17.984C95.2491 17.72 95.6151 17.336 95.8911 16.832C96.1791 16.316 96.3231 15.716 96.3231 15.032ZM106.092 9.92C106.872 9.92 107.568 10.082 108.18 10.406C108.804 10.73 109.29 11.21 109.638 11.846C109.986 12.482 110.16 13.25 110.16 14.15V20H108.126V14.456C108.126 13.568 107.904 12.89 107.46 12.422C107.016 11.942 106.41 11.702 105.642 11.702C104.874 11.702 104.262 11.942 103.806 12.422C103.362 12.89 103.14 13.568 103.14 14.456V20H101.088V10.082H103.14V11.216C103.476 10.808 103.902 10.49 104.418 10.262C104.946 10.034 105.504 9.92 106.092 9.92ZM115.172 11.756V17.246C115.172 17.618 115.256 17.888 115.424 18.056C115.604 18.212 115.904 18.29 116.324 18.29H117.584V20H115.964C115.04 20 114.332 19.784 113.84 19.352C113.348 18.92 113.102 18.218 113.102 17.246V11.756H111.932V10.082H113.102V7.616H115.172V10.082H117.584V11.756H115.172ZM123.075 20.162C122.295 20.162 121.593 20.024 120.969 19.748C120.357 19.46 119.871 19.076 119.511 18.596C119.151 18.104 118.959 17.558 118.935 16.958H121.059C121.095 17.378 121.293 17.732 121.653 18.02C122.025 18.296 122.487 18.434 123.039 18.434C123.615 18.434 124.059 18.326 124.371 18.11C124.695 17.882 124.857 17.594 124.857 17.246C124.857 16.874 124.677 16.598 124.317 16.418C123.969 16.238 123.411 16.04 122.643 15.824C121.899 15.62 121.293 15.422 120.825 15.23C120.357 15.038 119.949 14.744 119.601 14.348C119.265 13.952 119.097 13.43 119.097 12.782C119.097 12.254 119.253 11.774 119.565 11.342C119.877 10.898 120.321 10.55 120.897 10.298C121.485 10.046 122.157 9.92 122.913 9.92C124.041 9.92 124.947 10.208 125.631 10.784C126.327 11.348 126.699 12.122 126.747 13.106H124.695C124.659 12.662 124.479 12.308 124.155 12.044C123.831 11.78 123.393 11.648 122.841 11.648C122.301 11.648 121.887 11.75 121.599 11.954C121.311 12.158 121.167 12.428 121.167 12.764C121.167 13.028 121.263 13.25 121.455 13.43C121.647 13.61 121.881 13.754 122.157 13.862C122.433 13.958 122.841 14.084 123.381 14.24C124.101 14.432 124.689 14.63 125.145 14.834C125.613 15.026 126.015 15.314 126.351 15.698C126.687 16.082 126.861 16.592 126.873 17.228C126.873 17.792 126.717 18.296 126.405 18.74C126.093 19.184 125.649 19.532 125.073 19.784C124.509 20.036 123.843 20.162 123.075 20.162Z" fill="#1E1E1E"/>
<path d="M4.554 41.148C5.754 41.148 6.696 41.37 7.38 41.814C8.064 42.258 8.526 42.888 8.766 43.704H10.116V44.676H8.946C8.958 44.784 8.964 44.892 8.964 45C8.976 45.108 8.982 45.216 8.982 45.324C8.982 45.48 8.976 45.642 8.964 45.81C8.952 45.966 8.934 46.122 8.91 46.278H10.116V47.25H8.658C8.478 47.742 8.202 48.18 7.83 48.564C7.458 48.948 6.978 49.254 6.39 49.482C5.802 49.698 5.088 49.806 4.248 49.806H3.24V54H1.746V47.25H0.18V46.278H1.746V44.676H0.18V43.704H1.746V41.148H4.554ZM6.984 47.25H3.24V48.474H4.158C4.866 48.474 5.454 48.378 5.922 48.186C6.39 47.994 6.744 47.682 6.984 47.25ZM7.344 44.676H3.24V46.278H7.326C7.35 46.146 7.368 46.008 7.38 45.864C7.392 45.708 7.398 45.552 7.398 45.396C7.398 45.264 7.392 45.144 7.38 45.036C7.38 44.916 7.368 44.796 7.344 44.676ZM4.5 42.48H3.24V43.704H7.038C6.822 43.296 6.504 42.99 6.084 42.786C5.664 42.582 5.136 42.48 4.5 42.48ZM15.7866 42.75V40.878H19.5306V54H17.4606V42.75H15.7866ZM24.8695 51.534L22.6915 56.502H21.3595L22.6375 51.534H24.8695ZM26.1405 51.264V49.716L32.1885 41.04H34.6725V49.482H36.3465V51.264H34.6725V54H32.6565V51.264H26.1405ZM32.7465 43.128L28.4985 49.482H32.7465V43.128ZM38.0468 47.268C38.0468 45.192 38.3948 43.572 39.0908 42.408C39.7988 41.232 41.0108 40.644 42.7268 40.644C44.4428 40.644 45.6488 41.232 46.3448 42.408C47.0528 43.572 47.4068 45.192 47.4068 47.268C47.4068 49.368 47.0528 51.012 46.3448 52.2C45.6488 53.376 44.4428 53.964 42.7268 53.964C41.0108 53.964 39.7988 53.376 39.0908 52.2C38.3948 51.012 38.0468 49.368 38.0468 47.268ZM45.3908 47.268C45.3908 46.296 45.3248 45.474 45.1928 44.802C45.0728 44.13 44.8208 43.584 44.4368 43.164C44.0528 42.732 43.4828 42.516 42.7268 42.516C41.9708 42.516 41.4008 42.732 41.0168 43.164C40.6328 43.584 40.3748 44.13 40.2428 44.802C40.1228 45.474 40.0628 46.296 40.0628 47.268C40.0628 48.276 40.1228 49.122 40.2428 49.806C40.3628 50.49 40.6148 51.042 40.9988 51.462C41.3948 51.882 41.9708 52.092 42.7268 52.092C43.4828 52.092 44.0528 51.882 44.4368 51.462C44.8328 51.042 45.0908 50.49 45.2108 49.806C45.3308 49.122 45.3908 48.276 45.3908 47.268ZM49.578 47.268C49.578 45.192 49.926 43.572 50.622 42.408C51.33 41.232 52.542 40.644 54.258 40.644C55.974 40.644 57.18 41.232 57.876 42.408C58.584 43.572 58.938 45.192 58.938 47.268C58.938 49.368 58.584 51.012 57.876 52.2C57.18 53.376 55.974 53.964 54.258 53.964C52.542 53.964 51.33 53.376 50.622 52.2C49.926 51.012 49.578 49.368 49.578 47.268ZM56.922 47.268C56.922 46.296 56.856 45.474 56.724 44.802C56.604 44.13 56.352 43.584 55.968 43.164C55.584 42.732 55.014 42.516 54.258 42.516C53.502 42.516 52.932 42.732 52.548 43.164C52.164 43.584 51.906 44.13 51.774 44.802C51.654 45.474 51.594 46.296 51.594 47.268C51.594 48.276 51.654 49.122 51.774 49.806C51.894 50.49 52.146 51.042 52.53 51.462C52.926 51.882 53.502 52.092 54.258 52.092C55.014 52.092 55.584 51.882 55.968 51.462C56.364 51.042 56.622 50.49 56.742 49.806C56.862 49.122 56.922 48.276 56.922 47.268ZM62.2073 54.126C61.8353 54.126 61.5233 54 61.2713 53.748C61.0193 53.496 60.8933 53.184 60.8933 52.812C60.8933 52.44 61.0193 52.128 61.2713 51.876C61.5233 51.624 61.8353 51.498 62.2073 51.498C62.5673 51.498 62.8733 51.624 63.1253 51.876C63.3773 52.128 63.5033 52.44 63.5033 52.812C63.5033 53.184 63.3773 53.496 63.1253 53.748C62.8733 54 62.5673 54.126 62.2073 54.126ZM65.4511 47.268C65.4511 45.192 65.7991 43.572 66.4951 42.408C67.2031 41.232 68.4151 40.644 70.1311 40.644C71.8471 40.644 73.0531 41.232 73.7491 42.408C74.4571 43.572 74.8111 45.192 74.8111 47.268C74.8111 49.368 74.4571 51.012 73.7491 52.2C73.0531 53.376 71.8471 53.964 70.1311 53.964C68.4151 53.964 67.2031 53.376 66.4951 52.2C65.7991 51.012 65.4511 49.368 65.4511 47.268ZM72.7951 47.268C72.7951 46.296 72.7291 45.474 72.5971 44.802C72.4771 44.13 72.2251 43.584 71.8411 43.164C71.4571 42.732 70.8871 42.516 70.1311 42.516C69.3751 42.516 68.8051 42.732 68.4211 43.164C68.0371 43.584 67.7791 44.13 67.6471 44.802C67.5271 45.474 67.4671 46.296 67.4671 47.268C67.4671 48.276 67.5271 49.122 67.6471 49.806C67.7671 50.49 68.0191 51.042 68.4031 51.462C68.7991 51.882 69.3751 52.092 70.1311 52.092C70.8871 52.092 71.4571 51.882 71.8411 51.462C72.2371 51.042 72.4951 50.49 72.6151 49.806C72.7351 49.122 72.7951 48.276 72.7951 47.268ZM76.9823 47.268C76.9823 45.192 77.3303 43.572 78.0263 42.408C78.7343 41.232 79.9463 40.644 81.6623 40.644C83.3783 40.644 84.5843 41.232 85.2803 42.408C85.9883 43.572 86.3423 45.192 86.3423 47.268C86.3423 49.368 85.9883 51.012 85.2803 52.2C84.5843 53.376 83.3783 53.964 81.6623 53.964C79.9463 53.964 78.7343 53.376 78.0263 52.2C77.3303 51.012 76.9823 49.368 76.9823 47.268ZM84.3263 47.268C84.3263 46.296 84.2603 45.474 84.1283 44.802C84.0083 44.13 83.7563 43.584 83.3723 43.164C82.9883 42.732 82.4183 42.516 81.6623 42.516C80.9063 42.516 80.3363 42.732 79.9523 43.164C79.5683 43.584 79.3103 44.13 79.1783 44.802C79.0583 45.474 78.9983 46.296 78.9983 47.268C78.9983 48.276 79.0583 49.122 79.1783 49.806C79.2983 50.49 79.5503 51.042 79.9343 51.462C80.3303 51.882 80.9063 52.092 81.6623 52.092C82.4183 52.092 82.9883 51.882 83.3723 51.462C83.7683 51.042 84.0263 50.49 84.1463 49.806C84.2663 49.122 84.3263 48.276 84.3263 47.268Z" fill="#1E1E1E" fill-opacity="0.5"/>
</svg>
