<svg width="136" height="61" viewBox="0 0 136 61" fill="none" xmlns="http://www.w3.org/2000/svg">
<path d="M9.22525 17.444H3.98725L3.08725 20H0.945252L5.42725 7.472H7.80325L12.2853 20H10.1253L9.22525 17.444ZM8.64925 15.77L6.61525 9.956L4.56325 15.77H8.64925ZM16.286 11.522C16.586 11.018 16.982 10.628 17.474 10.352C17.978 10.064 18.572 9.92 19.256 9.92V12.044H18.734C17.93 12.044 17.318 12.248 16.898 12.656C16.49 13.064 16.286 13.772 16.286 14.78V20H14.234V10.082H16.286V11.522ZM23.5362 11.756V17.246C23.5362 17.618 23.6202 17.888 23.7882 18.056C23.9682 18.212 24.2682 18.29 24.6882 18.29H25.9482V20H24.3282C23.4042 20 22.6962 19.784 22.2042 19.352C21.7122 18.92 21.4662 18.218 21.4662 17.246V11.756H20.2962V10.082H21.4662V7.616H23.5362V10.082H25.9482V11.756H23.5362ZM28.8835 8.768C28.5115 8.768 28.1995 8.642 27.9475 8.39C27.6955 8.138 27.5695 7.826 27.5695 7.454C27.5695 7.082 27.6955 6.77 27.9475 6.518C28.1995 6.266 28.5115 6.14 28.8835 6.14C29.2435 6.14 29.5495 6.266 29.8015 6.518C30.0535 6.77 30.1795 7.082 30.1795 7.454C30.1795 7.826 30.0535 8.138 29.8015 8.39C29.5495 8.642 29.2435 8.768 28.8835 8.768ZM29.8915 10.082V20H27.8395V10.082H29.8915ZM36.7436 11.756H34.9076V20H32.8376V11.756H31.6676V10.082H32.8376V9.38C32.8376 8.24 33.1376 7.412 33.7376 6.896C34.3496 6.368 35.3036 6.104 36.5996 6.104V7.814C35.9756 7.814 35.5376 7.934 35.2856 8.174C35.0336 8.402 34.9076 8.804 34.9076 9.38V10.082H36.7436V11.756ZM39.6062 8.768C39.2342 8.768 38.9222 8.642 38.6702 8.39C38.4182 8.138 38.2922 7.826 38.2922 7.454C38.2922 7.082 38.4182 6.77 38.6702 6.518C38.9222 6.266 39.2342 6.14 39.6062 6.14C39.9662 6.14 40.2722 6.266 40.5242 6.518C40.7762 6.77 40.9022 7.082 40.9022 7.454C40.9022 7.826 40.7762 8.138 40.5242 8.39C40.2722 8.642 39.9662 8.768 39.6062 8.768ZM40.6142 10.082V20H38.5622V10.082H40.6142ZM42.6243 15.032C42.6243 14.012 42.8283 13.118 43.2363 12.35C43.6563 11.57 44.2323 10.97 44.9643 10.55C45.6963 10.13 46.5363 9.92 47.4843 9.92C48.6843 9.92 49.6743 10.208 50.4543 10.784C51.2463 11.348 51.7803 12.158 52.0563 13.214H49.8423C49.6623 12.722 49.3743 12.338 48.9783 12.062C48.5823 11.786 48.0843 11.648 47.4843 11.648C46.6443 11.648 45.9723 11.948 45.4683 12.548C44.9763 13.136 44.7303 13.964 44.7303 15.032C44.7303 16.1 44.9763 16.934 45.4683 17.534C45.9723 18.134 46.6443 18.434 47.4843 18.434C48.6723 18.434 49.4583 17.912 49.8423 16.868H52.0563C51.7683 17.876 51.2283 18.68 50.4363 19.28C49.6443 19.868 48.6603 20.162 47.4843 20.162C46.5363 20.162 45.6963 19.952 44.9643 19.532C44.2323 19.1 43.6563 18.5 43.2363 17.732C42.8283 16.952 42.6243 16.052 42.6243 15.032ZM55.1452 8.768C54.7732 8.768 54.4612 8.642 54.2092 8.39C53.9572 8.138 53.8312 7.826 53.8312 7.454C53.8312 7.082 53.9572 6.77 54.2092 6.518C54.4612 6.266 54.7732 6.14 55.1452 6.14C55.5052 6.14 55.8112 6.266 56.0632 6.518C56.3152 6.77 56.4412 7.082 56.4412 7.454C56.4412 7.826 56.3152 8.138 56.0632 8.39C55.8112 8.642 55.5052 8.768 55.1452 8.768ZM56.1532 10.082V20H54.1012V10.082H56.1532ZM58.1633 14.996C58.1633 14 58.3673 13.118 58.7753 12.35C59.1953 11.582 59.7593 10.988 60.4673 10.568C61.1873 10.136 61.9793 9.92 62.8433 9.92C63.6233 9.92 64.3013 10.076 64.8773 10.388C65.4653 10.688 65.9333 11.066 66.2813 11.522V10.082H68.3513V20H66.2813V18.524C65.9333 18.992 65.4593 19.382 64.8593 19.694C64.2593 20.006 63.5753 20.162 62.8073 20.162C61.9553 20.162 61.1753 19.946 60.4673 19.514C59.7593 19.07 59.1953 18.458 58.7753 17.678C58.3673 16.886 58.1633 15.992 58.1633 14.996ZM66.2813 15.032C66.2813 14.348 66.1373 13.754 65.8493 13.25C65.5733 12.746 65.2073 12.362 64.7513 12.098C64.2953 11.834 63.8033 11.702 63.2753 11.702C62.7473 11.702 62.2553 11.834 61.7993 12.098C61.3433 12.35 60.9713 12.728 60.6833 13.232C60.4073 13.724 60.2693 14.312 60.2693 14.996C60.2693 15.68 60.4073 16.28 60.6833 16.796C60.9713 17.312 61.3433 17.708 61.7993 17.984C62.2673 18.248 62.7593 18.38 63.2753 18.38C63.8033 18.38 64.2953 18.248 64.7513 17.984C65.2073 17.72 65.5733 17.336 65.8493 16.832C66.1373 16.316 66.2813 15.716 66.2813 15.032ZM73.0985 6.68V20H71.0465V6.68H73.0985ZM89.2164 11.216C89.2164 11.852 89.0664 12.452 88.7664 13.016C88.4664 13.58 87.9864 14.042 87.3264 14.402C86.6664 14.75 85.8204 14.924 84.7884 14.924H82.5204V20H80.4684V7.49H84.7884C85.7484 7.49 86.5584 7.658 87.2184 7.994C87.8904 8.318 88.3884 8.762 88.7124 9.326C89.0484 9.89 89.2164 10.52 89.2164 11.216ZM84.7884 13.25C85.5684 13.25 86.1504 13.076 86.5344 12.728C86.9184 12.368 87.1104 11.864 87.1104 11.216C87.1104 9.848 86.3364 9.164 84.7884 9.164H82.5204V13.25H84.7884ZM93.2255 6.68V20H91.1735V6.68H93.2255ZM95.2356 14.996C95.2356 14 95.4396 13.118 95.8476 12.35C96.2676 11.582 96.8316 10.988 97.5396 10.568C98.2596 10.136 99.0516 9.92 99.9156 9.92C100.696 9.92 101.374 10.076 101.95 10.388C102.538 10.688 103.006 11.066 103.354 11.522V10.082H105.424V20H103.354V18.524C103.006 18.992 102.532 19.382 101.932 19.694C101.332 20.006 100.648 20.162 99.8796 20.162C99.0276 20.162 98.2476 19.946 97.5396 19.514C96.8316 19.07 96.2676 18.458 95.8476 17.678C95.4396 16.886 95.2356 15.992 95.2356 14.996ZM103.354 15.032C103.354 14.348 103.21 13.754 102.922 13.25C102.646 12.746 102.28 12.362 101.824 12.098C101.368 11.834 100.876 11.702 100.348 11.702C99.8196 11.702 99.3276 11.834 98.8716 12.098C98.4156 12.35 98.0436 12.728 97.7556 13.232C97.4796 13.724 97.3416 14.312 97.3416 14.996C97.3416 15.68 97.4796 16.28 97.7556 16.796C98.0436 17.312 98.4156 17.708 98.8716 17.984C99.3396 18.248 99.8316 18.38 100.348 18.38C100.876 18.38 101.368 18.248 101.824 17.984C102.28 17.72 102.646 17.336 102.922 16.832C103.21 16.316 103.354 15.716 103.354 15.032ZM113.123 9.92C113.903 9.92 114.599 10.082 115.211 10.406C115.835 10.73 116.321 11.21 116.669 11.846C117.017 12.482 117.191 13.25 117.191 14.15V20H115.157V14.456C115.157 13.568 114.935 12.89 114.491 12.422C114.047 11.942 113.441 11.702 112.673 11.702C111.905 11.702 111.293 11.942 110.837 12.422C110.393 12.89 110.171 13.568 110.171 14.456V20H108.119V10.082H110.171V11.216C110.507 10.808 110.933 10.49 111.449 10.262C111.977 10.034 112.535 9.92 113.123 9.92ZM122.202 11.756V17.246C122.202 17.618 122.286 17.888 122.454 18.056C122.634 18.212 122.934 18.29 123.354 18.29H124.614V20H122.994C122.07 20 121.362 19.784 120.87 19.352C120.378 18.92 120.132 18.218 120.132 17.246V11.756H118.962V10.082H120.132V7.616H122.202V10.082H124.614V11.756H122.202ZM130.106 20.162C129.326 20.162 128.624 20.024 128 19.748C127.388 19.46 126.902 19.076 126.542 18.596C126.182 18.104 125.99 17.558 125.966 16.958H128.09C128.126 17.378 128.324 17.732 128.684 18.02C129.056 18.296 129.518 18.434 130.07 18.434C130.646 18.434 131.09 18.326 131.402 18.11C131.726 17.882 131.888 17.594 131.888 17.246C131.888 16.874 131.708 16.598 131.348 16.418C131 16.238 130.442 16.04 129.674 15.824C128.93 15.62 128.324 15.422 127.856 15.23C127.388 15.038 126.98 14.744 126.632 14.348C126.296 13.952 126.128 13.43 126.128 12.782C126.128 12.254 126.284 11.774 126.596 11.342C126.908 10.898 127.352 10.55 127.928 10.298C128.516 10.046 129.188 9.92 129.944 9.92C131.072 9.92 131.978 10.208 132.662 10.784C133.358 11.348 133.73 12.122 133.778 13.106H131.726C131.69 12.662 131.51 12.308 131.186 12.044C130.862 11.78 130.424 11.648 129.872 11.648C129.332 11.648 128.918 11.75 128.63 11.954C128.342 12.158 128.198 12.428 128.198 12.764C128.198 13.028 128.294 13.25 128.486 13.43C128.678 13.61 128.912 13.754 129.188 13.862C129.464 13.958 129.872 14.084 130.412 14.24C131.132 14.432 131.72 14.63 132.176 14.834C132.644 15.026 133.046 15.314 133.382 15.698C133.718 16.082 133.892 16.592 133.904 17.228C133.904 17.792 133.748 18.296 133.436 18.74C133.124 19.184 132.68 19.532 132.104 19.784C131.54 20.036 130.874 20.162 130.106 20.162Z" fill="#1E1E1E"/>
<path d="M4.88725 41.148C6.08725 41.148 7.02925 41.37 7.71325 41.814C8.39725 42.258 8.85925 42.888 9.09925 43.704H10.4493V44.676H9.27925C9.29125 44.784 9.29725 44.892 9.29725 45C9.30925 45.108 9.31525 45.216 9.31525 45.324C9.31525 45.48 9.30925 45.642 9.29725 45.81C9.28525 45.966 9.26725 46.122 9.24325 46.278H10.4493V47.25H8.99125C8.81125 47.742 8.53525 48.18 8.16325 48.564C7.79125 48.948 7.31125 49.254 6.72325 49.482C6.13525 49.698 5.42125 49.806 4.58125 49.806H3.57325V54H2.07925V47.25H0.513252V46.278H2.07925V44.676H0.513252V43.704H2.07925V41.148H4.88725ZM7.31725 47.25H3.57325V48.474H4.49125C5.19925 48.474 5.78725 48.378 6.25525 48.186C6.72325 47.994 7.07725 47.682 7.31725 47.25ZM7.67725 44.676H3.57325V46.278H7.65925C7.68325 46.146 7.70125 46.008 7.71325 45.864C7.72525 45.708 7.73125 45.552 7.73125 45.396C7.73125 45.264 7.72525 45.144 7.71325 45.036C7.71325 44.916 7.70125 44.796 7.67725 44.676ZM4.83325 42.48H3.57325V43.704H7.37125C7.15525 43.296 6.83725 42.99 6.41725 42.786C5.99725 42.582 5.46925 42.48 4.83325 42.48ZM18.9458 50.436C19.0658 51.036 19.3238 51.492 19.7198 51.804C20.1158 52.116 20.6498 52.272 21.3218 52.272C22.1738 52.272 22.7978 51.936 23.1938 51.264C23.5898 50.592 23.7878 49.446 23.7878 47.826C23.4998 48.234 23.0918 48.552 22.5638 48.78C22.0478 48.996 21.4838 49.104 20.8718 49.104C20.0918 49.104 19.3838 48.948 18.7478 48.636C18.1118 48.312 17.6078 47.838 17.2358 47.214C16.8758 46.578 16.6958 45.81 16.6958 44.91C16.6958 43.59 17.0798 42.54 17.8478 41.76C18.6278 40.968 19.6958 40.572 21.0518 40.572C22.6838 40.572 23.8418 41.118 24.5258 42.21C25.2218 43.29 25.5698 44.952 25.5698 47.196C25.5698 48.744 25.4378 50.01 25.1738 50.994C24.9218 51.978 24.4778 52.722 23.8418 53.226C23.2058 53.73 22.3238 53.982 21.1958 53.982C19.9118 53.982 18.9218 53.646 18.2258 52.974C17.5298 52.302 17.1398 51.456 17.0558 50.436H18.9458ZM21.2318 47.376C21.9518 47.376 22.5158 47.154 22.9238 46.71C23.3438 46.254 23.5538 45.654 23.5538 44.91C23.5538 44.082 23.3318 43.44 22.8878 42.984C22.4558 42.516 21.8618 42.282 21.1058 42.282C20.3498 42.282 19.7498 42.522 19.3058 43.002C18.8738 43.47 18.6578 44.088 18.6578 44.856C18.6578 45.588 18.8678 46.194 19.2878 46.674C19.7198 47.142 20.3678 47.376 21.2318 47.376ZM27.8156 47.268C27.8156 45.192 28.1636 43.572 28.8596 42.408C29.5676 41.232 30.7796 40.644 32.4956 40.644C34.2116 40.644 35.4176 41.232 36.1136 42.408C36.8216 43.572 37.1756 45.192 37.1756 47.268C37.1756 49.368 36.8216 51.012 36.1136 52.2C35.4176 53.376 34.2116 53.964 32.4956 53.964C30.7796 53.964 29.5676 53.376 28.8596 52.2C28.1636 51.012 27.8156 49.368 27.8156 47.268ZM35.1596 47.268C35.1596 46.296 35.0936 45.474 34.9616 44.802C34.8416 44.13 34.5896 43.584 34.2056 43.164C33.8216 42.732 33.2516 42.516 32.4956 42.516C31.7396 42.516 31.1696 42.732 30.7856 43.164C30.4016 43.584 30.1436 44.13 30.0116 44.802C29.8916 45.474 29.8316 46.296 29.8316 47.268C29.8316 48.276 29.8916 49.122 30.0116 49.806C30.1316 50.49 30.3836 51.042 30.7676 51.462C31.1636 51.882 31.7396 52.092 32.4956 52.092C33.2516 52.092 33.8216 51.882 34.2056 51.462C34.6016 51.042 34.8596 50.49 34.9796 49.806C35.0996 49.122 35.1596 48.276 35.1596 47.268ZM39.3468 47.268C39.3468 45.192 39.6948 43.572 40.3908 42.408C41.0988 41.232 42.3108 40.644 44.0268 40.644C45.7428 40.644 46.9488 41.232 47.6448 42.408C48.3528 43.572 48.7068 45.192 48.7068 47.268C48.7068 49.368 48.3528 51.012 47.6448 52.2C46.9488 53.376 45.7428 53.964 44.0268 53.964C42.3108 53.964 41.0988 53.376 40.3908 52.2C39.6948 51.012 39.3468 49.368 39.3468 47.268ZM46.6908 47.268C46.6908 46.296 46.6248 45.474 46.4928 44.802C46.3728 44.13 46.1208 43.584 45.7368 43.164C45.3528 42.732 44.7828 42.516 44.0268 42.516C43.2708 42.516 42.7008 42.732 42.3168 43.164C41.9328 43.584 41.6748 44.13 41.5428 44.802C41.4228 45.474 41.3628 46.296 41.3628 47.268C41.3628 48.276 41.4228 49.122 41.5428 49.806C41.6628 50.49 41.9148 51.042 42.2988 51.462C42.6948 51.882 43.2708 52.092 44.0268 52.092C44.7828 52.092 45.3528 51.882 45.7368 51.462C46.1328 51.042 46.3908 50.49 46.5108 49.806C46.6308 49.122 46.6908 48.276 46.6908 47.268ZM51.9761 54.126C51.6041 54.126 51.2921 54 51.0401 53.748C50.7881 53.496 50.6621 53.184 50.6621 52.812C50.6621 52.44 50.7881 52.128 51.0401 51.876C51.2921 51.624 51.6041 51.498 51.9761 51.498C52.3361 51.498 52.6421 51.624 52.8941 51.876C53.1461 52.128 53.2721 52.44 53.2721 52.812C53.2721 53.184 53.1461 53.496 52.8941 53.748C52.6421 54 52.3361 54.126 51.9761 54.126ZM55.2199 47.268C55.2199 45.192 55.5679 43.572 56.2639 42.408C56.9719 41.232 58.1839 40.644 59.8999 40.644C61.6159 40.644 62.8219 41.232 63.5179 42.408C64.2259 43.572 64.5799 45.192 64.5799 47.268C64.5799 49.368 64.2259 51.012 63.5179 52.2C62.8219 53.376 61.6159 53.964 59.8999 53.964C58.1839 53.964 56.9719 53.376 56.2639 52.2C55.5679 51.012 55.2199 49.368 55.2199 47.268ZM62.5639 47.268C62.5639 46.296 62.4979 45.474 62.3659 44.802C62.2459 44.13 61.9939 43.584 61.6099 43.164C61.2259 42.732 60.6559 42.516 59.8999 42.516C59.1439 42.516 58.5739 42.732 58.1899 43.164C57.8059 43.584 57.5479 44.13 57.4159 44.802C57.2959 45.474 57.2359 46.296 57.2359 47.268C57.2359 48.276 57.2959 49.122 57.4159 49.806C57.5359 50.49 57.7879 51.042 58.1719 51.462C58.5679 51.882 59.1439 52.092 59.8999 52.092C60.6559 52.092 61.2259 51.882 61.6099 51.462C62.0059 51.042 62.2639 50.49 62.3839 49.806C62.5039 49.122 62.5639 48.276 62.5639 47.268ZM66.7511 47.268C66.7511 45.192 67.0991 43.572 67.7951 42.408C68.5031 41.232 69.7151 40.644 71.4311 40.644C73.1471 40.644 74.3531 41.232 75.0491 42.408C75.7571 43.572 76.1111 45.192 76.1111 47.268C76.1111 49.368 75.7571 51.012 75.0491 52.2C74.3531 53.376 73.1471 53.964 71.4311 53.964C69.7151 53.964 68.5031 53.376 67.7951 52.2C67.0991 51.012 66.7511 49.368 66.7511 47.268ZM74.0951 47.268C74.0951 46.296 74.0291 45.474 73.8971 44.802C73.7771 44.13 73.5251 43.584 73.1411 43.164C72.7571 42.732 72.1871 42.516 71.4311 42.516C70.6751 42.516 70.1051 42.732 69.7211 43.164C69.3371 43.584 69.0791 44.13 68.9471 44.802C68.8271 45.474 68.7671 46.296 68.7671 47.268C68.7671 48.276 68.8271 49.122 68.9471 49.806C69.0671 50.49 69.3191 51.042 69.7031 51.462C70.0991 51.882 70.6751 52.092 71.4311 52.092C72.1871 52.092 72.7571 51.882 73.1411 51.462C73.5371 51.042 73.7951 50.49 73.9151 49.806C74.0351 49.122 74.0951 48.276 74.0951 47.268Z" fill="#1E1E1E" fill-opacity="0.5"/>
</svg>
