<svg width="136" height="61" viewBox="0 0 136 61" fill="none" xmlns="http://www.w3.org/2000/svg">
<path d="M9.55875 17.444H4.32075L3.42075 20H1.27875L5.76075 7.472H8.13675L12.6187 20H10.4587L9.55875 17.444ZM8.98275 15.77L6.94875 9.956L4.89675 15.77H8.98275ZM16.6195 11.522C16.9195 11.018 17.3155 10.628 17.8075 10.352C18.3115 10.064 18.9055 9.92 19.5895 9.92V12.044H19.0675C18.2635 12.044 17.6515 12.248 17.2315 12.656C16.8235 13.064 16.6195 13.772 16.6195 14.78V20H14.5675V10.082H16.6195V11.522ZM23.8697 11.756V17.246C23.8697 17.618 23.9537 17.888 24.1217 18.056C24.3017 18.212 24.6017 18.29 25.0217 18.29H26.2817V20H24.6617C23.7377 20 23.0297 19.784 22.5377 19.352C22.0457 18.92 21.7997 18.218 21.7997 17.246V11.756H20.6297V10.082H21.7997V7.616H23.8697V10.082H26.2817V11.756H23.8697ZM29.217 8.768C28.845 8.768 28.533 8.642 28.281 8.39C28.029 8.138 27.903 7.826 27.903 7.454C27.903 7.082 28.029 6.77 28.281 6.518C28.533 6.266 28.845 6.14 29.217 6.14C29.577 6.14 29.883 6.266 30.135 6.518C30.387 6.77 30.513 7.082 30.513 7.454C30.513 7.826 30.387 8.138 30.135 8.39C29.883 8.642 29.577 8.768 29.217 8.768ZM30.225 10.082V20H28.173V10.082H30.225ZM37.0771 11.756H35.2411V20H33.1711V11.756H32.0011V10.082H33.1711V9.38C33.1711 8.24 33.4711 7.412 34.0711 6.896C34.6831 6.368 35.6371 6.104 36.9331 6.104V7.814C36.3091 7.814 35.8711 7.934 35.6191 8.174C35.3671 8.402 35.2411 8.804 35.2411 9.38V10.082H37.0771V11.756ZM39.9397 8.768C39.5677 8.768 39.2557 8.642 39.0037 8.39C38.7517 8.138 38.6257 7.826 38.6257 7.454C38.6257 7.082 38.7517 6.77 39.0037 6.518C39.2557 6.266 39.5677 6.14 39.9397 6.14C40.2997 6.14 40.6057 6.266 40.8577 6.518C41.1097 6.77 41.2357 7.082 41.2357 7.454C41.2357 7.826 41.1097 8.138 40.8577 8.39C40.6057 8.642 40.2997 8.768 39.9397 8.768ZM40.9477 10.082V20H38.8957V10.082H40.9477ZM42.9577 15.032C42.9577 14.012 43.1617 13.118 43.5697 12.35C43.9897 11.57 44.5657 10.97 45.2977 10.55C46.0297 10.13 46.8697 9.92 47.8177 9.92C49.0177 9.92 50.0077 10.208 50.7877 10.784C51.5797 11.348 52.1137 12.158 52.3897 13.214H50.1757C49.9957 12.722 49.7077 12.338 49.3117 12.062C48.9157 11.786 48.4177 11.648 47.8177 11.648C46.9777 11.648 46.3057 11.948 45.8017 12.548C45.3097 13.136 45.0637 13.964 45.0637 15.032C45.0637 16.1 45.3097 16.934 45.8017 17.534C46.3057 18.134 46.9777 18.434 47.8177 18.434C49.0057 18.434 49.7917 17.912 50.1757 16.868H52.3897C52.1017 17.876 51.5617 18.68 50.7697 19.28C49.9777 19.868 48.9937 20.162 47.8177 20.162C46.8697 20.162 46.0297 19.952 45.2977 19.532C44.5657 19.1 43.9897 18.5 43.5697 17.732C43.1617 16.952 42.9577 16.052 42.9577 15.032ZM55.4787 8.768C55.1067 8.768 54.7947 8.642 54.5427 8.39C54.2907 8.138 54.1647 7.826 54.1647 7.454C54.1647 7.082 54.2907 6.77 54.5427 6.518C54.7947 6.266 55.1067 6.14 55.4787 6.14C55.8387 6.14 56.1447 6.266 56.3967 6.518C56.6487 6.77 56.7747 7.082 56.7747 7.454C56.7747 7.826 56.6487 8.138 56.3967 8.39C56.1447 8.642 55.8387 8.768 55.4787 8.768ZM56.4867 10.082V20H54.4347V10.082H56.4867ZM58.4968 14.996C58.4968 14 58.7008 13.118 59.1088 12.35C59.5288 11.582 60.0928 10.988 60.8008 10.568C61.5208 10.136 62.3128 9.92 63.1768 9.92C63.9568 9.92 64.6348 10.076 65.2108 10.388C65.7988 10.688 66.2668 11.066 66.6148 11.522V10.082H68.6848V20H66.6148V18.524C66.2668 18.992 65.7928 19.382 65.1928 19.694C64.5928 20.006 63.9088 20.162 63.1408 20.162C62.2888 20.162 61.5088 19.946 60.8008 19.514C60.0928 19.07 59.5288 18.458 59.1088 17.678C58.7008 16.886 58.4968 15.992 58.4968 14.996ZM66.6148 15.032C66.6148 14.348 66.4708 13.754 66.1828 13.25C65.9068 12.746 65.5408 12.362 65.0848 12.098C64.6288 11.834 64.1368 11.702 63.6088 11.702C63.0808 11.702 62.5888 11.834 62.1328 12.098C61.6768 12.35 61.3048 12.728 61.0168 13.232C60.7408 13.724 60.6028 14.312 60.6028 14.996C60.6028 15.68 60.7408 16.28 61.0168 16.796C61.3048 17.312 61.6768 17.708 62.1328 17.984C62.6008 18.248 63.0928 18.38 63.6088 18.38C64.1368 18.38 64.6288 18.248 65.0848 17.984C65.5408 17.72 65.9068 17.336 66.1828 16.832C66.4708 16.316 66.6148 15.716 66.6148 15.032ZM73.432 6.68V20H71.38V6.68H73.432ZM89.5499 11.216C89.5499 11.852 89.3999 12.452 89.0999 13.016C88.7999 13.58 88.3199 14.042 87.6599 14.402C86.9999 14.75 86.1539 14.924 85.1219 14.924H82.8539V20H80.8019V7.49H85.1219C86.0819 7.49 86.8919 7.658 87.5519 7.994C88.2239 8.318 88.7219 8.762 89.0459 9.326C89.3819 9.89 89.5499 10.52 89.5499 11.216ZM85.1219 13.25C85.9019 13.25 86.4839 13.076 86.8679 12.728C87.2519 12.368 87.4439 11.864 87.4439 11.216C87.4439 9.848 86.6699 9.164 85.1219 9.164H82.8539V13.25H85.1219ZM93.559 6.68V20H91.507V6.68H93.559ZM95.5691 14.996C95.5691 14 95.7731 13.118 96.1811 12.35C96.6011 11.582 97.1651 10.988 97.8731 10.568C98.5931 10.136 99.3851 9.92 100.249 9.92C101.029 9.92 101.707 10.076 102.283 10.388C102.871 10.688 103.339 11.066 103.687 11.522V10.082H105.757V20H103.687V18.524C103.339 18.992 102.865 19.382 102.265 19.694C101.665 20.006 100.981 20.162 100.213 20.162C99.3611 20.162 98.5811 19.946 97.8731 19.514C97.1651 19.07 96.6011 18.458 96.1811 17.678C95.7731 16.886 95.5691 15.992 95.5691 14.996ZM103.687 15.032C103.687 14.348 103.543 13.754 103.255 13.25C102.979 12.746 102.613 12.362 102.157 12.098C101.701 11.834 101.209 11.702 100.681 11.702C100.153 11.702 99.6611 11.834 99.2051 12.098C98.7491 12.35 98.3771 12.728 98.0891 13.232C97.8131 13.724 97.6751 14.312 97.6751 14.996C97.6751 15.68 97.8131 16.28 98.0891 16.796C98.3771 17.312 98.7491 17.708 99.2051 17.984C99.6731 18.248 100.165 18.38 100.681 18.38C101.209 18.38 101.701 18.248 102.157 17.984C102.613 17.72 102.979 17.336 103.255 16.832C103.543 16.316 103.687 15.716 103.687 15.032ZM113.456 9.92C114.236 9.92 114.932 10.082 115.544 10.406C116.168 10.73 116.654 11.21 117.002 11.846C117.35 12.482 117.524 13.25 117.524 14.15V20H115.49V14.456C115.49 13.568 115.268 12.89 114.824 12.422C114.38 11.942 113.774 11.702 113.006 11.702C112.238 11.702 111.626 11.942 111.17 12.422C110.726 12.89 110.504 13.568 110.504 14.456V20H108.452V10.082H110.504V11.216C110.84 10.808 111.266 10.49 111.782 10.262C112.31 10.034 112.868 9.92 113.456 9.92ZM122.536 11.756V17.246C122.536 17.618 122.62 17.888 122.788 18.056C122.968 18.212 123.268 18.29 123.688 18.29H124.948V20H123.328C122.404 20 121.696 19.784 121.204 19.352C120.712 18.92 120.466 18.218 120.466 17.246V11.756H119.296V10.082H120.466V7.616H122.536V10.082H124.948V11.756H122.536ZM130.439 20.162C129.659 20.162 128.957 20.024 128.333 19.748C127.721 19.46 127.235 19.076 126.875 18.596C126.515 18.104 126.323 17.558 126.299 16.958H128.423C128.459 17.378 128.657 17.732 129.017 18.02C129.389 18.296 129.851 18.434 130.403 18.434C130.979 18.434 131.423 18.326 131.735 18.11C132.059 17.882 132.221 17.594 132.221 17.246C132.221 16.874 132.041 16.598 131.681 16.418C131.333 16.238 130.775 16.04 130.007 15.824C129.263 15.62 128.657 15.422 128.189 15.23C127.721 15.038 127.313 14.744 126.965 14.348C126.629 13.952 126.461 13.43 126.461 12.782C126.461 12.254 126.617 11.774 126.929 11.342C127.241 10.898 127.685 10.55 128.261 10.298C128.849 10.046 129.521 9.92 130.277 9.92C131.405 9.92 132.311 10.208 132.995 10.784C133.691 11.348 134.063 12.122 134.111 13.106H132.059C132.023 12.662 131.843 12.308 131.519 12.044C131.195 11.78 130.757 11.648 130.205 11.648C129.665 11.648 129.251 11.75 128.963 11.954C128.675 12.158 128.531 12.428 128.531 12.764C128.531 13.028 128.627 13.25 128.819 13.43C129.011 13.61 129.245 13.754 129.521 13.862C129.797 13.958 130.205 14.084 130.745 14.24C131.465 14.432 132.053 14.63 132.509 14.834C132.977 15.026 133.379 15.314 133.715 15.698C134.051 16.082 134.225 16.592 134.237 17.228C134.237 17.792 134.081 18.296 133.769 18.74C133.457 19.184 133.013 19.532 132.437 19.784C131.873 20.036 131.207 20.162 130.439 20.162Z" fill="#1E1E1E"/>
<path d="M5.22075 41.148C6.42075 41.148 7.36275 41.37 8.04675 41.814C8.73075 42.258 9.19275 42.888 9.43275 43.704H10.7827V44.676H9.61275C9.62475 44.784 9.63075 44.892 9.63075 45C9.64275 45.108 9.64875 45.216 9.64875 45.324C9.64875 45.48 9.64275 45.642 9.63075 45.81C9.61875 45.966 9.60075 46.122 9.57675 46.278H10.7827V47.25H9.32475C9.14475 47.742 8.86875 48.18 8.49675 48.564C8.12475 48.948 7.64475 49.254 7.05675 49.482C6.46875 49.698 5.75475 49.806 4.91475 49.806H3.90675V54H2.41275V47.25H0.846748V46.278H2.41275V44.676H0.846748V43.704H2.41275V41.148H5.22075ZM7.65075 47.25H3.90675V48.474H4.82475C5.53275 48.474 6.12075 48.378 6.58875 48.186C7.05675 47.994 7.41075 47.682 7.65075 47.25ZM8.01075 44.676H3.90675V46.278H7.99275C8.01675 46.146 8.03475 46.008 8.04675 45.864C8.05875 45.708 8.06475 45.552 8.06475 45.396C8.06475 45.264 8.05875 45.144 8.04675 45.036C8.04675 44.916 8.03475 44.796 8.01075 44.676ZM5.16675 42.48H3.90675V43.704H7.70475C7.48875 43.296 7.17075 42.99 6.75075 42.786C6.33075 42.582 5.80275 42.48 5.16675 42.48ZM16.6873 44.118C16.7593 43.002 17.1853 42.132 17.9653 41.508C18.7573 40.884 19.7653 40.572 20.9893 40.572C21.8293 40.572 22.5553 40.722 23.1673 41.022C23.7793 41.322 24.2413 41.73 24.5533 42.246C24.8653 42.762 25.0213 43.344 25.0213 43.992C25.0213 44.736 24.8233 45.372 24.4273 45.9C24.0313 46.428 23.5573 46.782 23.0053 46.962V47.034C23.7133 47.25 24.2653 47.646 24.6613 48.222C25.0573 48.786 25.2553 49.512 25.2553 50.4C25.2553 51.108 25.0933 51.738 24.7693 52.29C24.4453 52.842 23.9653 53.28 23.3293 53.604C22.6933 53.916 21.9313 54.072 21.0433 54.072C19.7473 54.072 18.6793 53.742 17.8393 53.082C17.0113 52.41 16.5673 51.45 16.5073 50.202H18.4873C18.5353 50.838 18.7813 51.36 19.2253 51.768C19.6693 52.164 20.2693 52.362 21.0253 52.362C21.7573 52.362 22.3213 52.164 22.7173 51.768C23.1133 51.36 23.3113 50.838 23.3113 50.202C23.3113 49.362 23.0413 48.768 22.5013 48.42C21.9733 48.06 21.1573 47.88 20.0533 47.88H19.5853V46.188H20.0713C21.0433 46.176 21.7813 46.014 22.2853 45.702C22.8013 45.39 23.0593 44.898 23.0593 44.226C23.0593 43.65 22.8733 43.194 22.5013 42.858C22.1293 42.51 21.6013 42.336 20.9173 42.336C20.2453 42.336 19.7233 42.51 19.3513 42.858C18.9793 43.194 18.7573 43.614 18.6853 44.118H16.6873ZM29.9308 51.534L27.7528 56.502H26.4208L27.6988 51.534H29.9308ZM39.9138 42.642H33.8838V46.224C34.1358 45.888 34.5078 45.606 34.9998 45.378C35.5038 45.15 36.0378 45.036 36.6018 45.036C37.6098 45.036 38.4258 45.252 39.0498 45.684C39.6858 46.116 40.1358 46.662 40.3998 47.322C40.6758 47.982 40.8138 48.678 40.8138 49.41C40.8138 50.298 40.6398 51.09 40.2918 51.786C39.9558 52.47 39.4458 53.01 38.7618 53.406C38.0898 53.802 37.2618 54 36.2778 54C34.9698 54 33.9198 53.676 33.1278 53.028C32.3358 52.38 31.8618 51.522 31.7058 50.454H33.7038C33.8358 51.018 34.1298 51.468 34.5858 51.804C35.0418 52.128 35.6118 52.29 36.2958 52.29C37.1478 52.29 37.7838 52.032 38.2038 51.516C38.6358 51 38.8518 50.316 38.8518 49.464C38.8518 48.6 38.6358 47.94 38.2038 47.484C37.7718 47.016 37.1358 46.782 36.2958 46.782C35.7078 46.782 35.2098 46.932 34.8018 47.232C34.4058 47.52 34.1178 47.916 33.9378 48.42H31.9938V40.842H39.9138V42.642ZM42.9499 47.268C42.9499 45.192 43.2979 43.572 43.9939 42.408C44.7019 41.232 45.9139 40.644 47.6299 40.644C49.3459 40.644 50.5519 41.232 51.2479 42.408C51.9559 43.572 52.3099 45.192 52.3099 47.268C52.3099 49.368 51.9559 51.012 51.2479 52.2C50.5519 53.376 49.3459 53.964 47.6299 53.964C45.9139 53.964 44.7019 53.376 43.9939 52.2C43.2979 51.012 42.9499 49.368 42.9499 47.268ZM50.2939 47.268C50.2939 46.296 50.2279 45.474 50.0959 44.802C49.9759 44.13 49.7239 43.584 49.3399 43.164C48.9559 42.732 48.3859 42.516 47.6299 42.516C46.8739 42.516 46.3039 42.732 45.9199 43.164C45.5359 43.584 45.2779 44.13 45.1459 44.802C45.0259 45.474 44.9659 46.296 44.9659 47.268C44.9659 48.276 45.0259 49.122 45.1459 49.806C45.2659 50.49 45.5179 51.042 45.9019 51.462C46.2979 51.882 46.8739 52.092 47.6299 52.092C48.3859 52.092 48.9559 51.882 49.3399 51.462C49.7359 51.042 49.9939 50.49 50.1139 49.806C50.2339 49.122 50.2939 48.276 50.2939 47.268ZM54.4811 47.268C54.4811 45.192 54.8291 43.572 55.5251 42.408C56.2331 41.232 57.4451 40.644 59.1611 40.644C60.8771 40.644 62.0831 41.232 62.7791 42.408C63.4871 43.572 63.8411 45.192 63.8411 47.268C63.8411 49.368 63.4871 51.012 62.7791 52.2C62.0831 53.376 60.8771 53.964 59.1611 53.964C57.4451 53.964 56.2331 53.376 55.5251 52.2C54.8291 51.012 54.4811 49.368 54.4811 47.268ZM61.8251 47.268C61.8251 46.296 61.7591 45.474 61.6271 44.802C61.5071 44.13 61.2551 43.584 60.8711 43.164C60.4871 42.732 59.9171 42.516 59.1611 42.516C58.4051 42.516 57.8351 42.732 57.4511 43.164C57.0671 43.584 56.8091 44.13 56.6771 44.802C56.5571 45.474 56.4971 46.296 56.4971 47.268C56.4971 48.276 56.5571 49.122 56.6771 49.806C56.7971 50.49 57.0491 51.042 57.4331 51.462C57.8291 51.882 58.4051 52.092 59.1611 52.092C59.9171 52.092 60.4871 51.882 60.8711 51.462C61.2671 51.042 61.5251 50.49 61.6451 49.806C61.7651 49.122 61.8251 48.276 61.8251 47.268ZM67.1104 54.126C66.7384 54.126 66.4264 54 66.1744 53.748C65.9224 53.496 65.7964 53.184 65.7964 52.812C65.7964 52.44 65.9224 52.128 66.1744 51.876C66.4264 51.624 66.7384 51.498 67.1104 51.498C67.4704 51.498 67.7764 51.624 68.0284 51.876C68.2804 52.128 68.4064 52.44 68.4064 52.812C68.4064 53.184 68.2804 53.496 68.0284 53.748C67.7764 54 67.4704 54.126 67.1104 54.126ZM70.3542 47.268C70.3542 45.192 70.7022 43.572 71.3982 42.408C72.1062 41.232 73.3182 40.644 75.0342 40.644C76.7502 40.644 77.9562 41.232 78.6522 42.408C79.3602 43.572 79.7142 45.192 79.7142 47.268C79.7142 49.368 79.3602 51.012 78.6522 52.2C77.9562 53.376 76.7502 53.964 75.0342 53.964C73.3182 53.964 72.1062 53.376 71.3982 52.2C70.7022 51.012 70.3542 49.368 70.3542 47.268ZM77.6982 47.268C77.6982 46.296 77.6322 45.474 77.5002 44.802C77.3802 44.13 77.1282 43.584 76.7442 43.164C76.3602 42.732 75.7902 42.516 75.0342 42.516C74.2782 42.516 73.7082 42.732 73.3242 43.164C72.9402 43.584 72.6822 44.13 72.5502 44.802C72.4302 45.474 72.3702 46.296 72.3702 47.268C72.3702 48.276 72.4302 49.122 72.5502 49.806C72.6702 50.49 72.9222 51.042 73.3062 51.462C73.7022 51.882 74.2782 52.092 75.0342 52.092C75.7902 52.092 76.3602 51.882 76.7442 51.462C77.1402 51.042 77.3982 50.49 77.5182 49.806C77.6382 49.122 77.6982 48.276 77.6982 47.268ZM81.8854 47.268C81.8854 45.192 82.2334 43.572 82.9294 42.408C83.6374 41.232 84.8494 40.644 86.5654 40.644C88.2814 40.644 89.4874 41.232 90.1834 42.408C90.8914 43.572 91.2454 45.192 91.2454 47.268C91.2454 49.368 90.8914 51.012 90.1834 52.2C89.4874 53.376 88.2814 53.964 86.5654 53.964C84.8494 53.964 83.6374 53.376 82.9294 52.2C82.2334 51.012 81.8854 49.368 81.8854 47.268ZM89.2294 47.268C89.2294 46.296 89.1634 45.474 89.0314 44.802C88.9114 44.13 88.6594 43.584 88.2754 43.164C87.8914 42.732 87.3214 42.516 86.5654 42.516C85.8094 42.516 85.2394 42.732 84.8554 43.164C84.4714 43.584 84.2134 44.13 84.0814 44.802C83.9614 45.474 83.9014 46.296 83.9014 47.268C83.9014 48.276 83.9614 49.122 84.0814 49.806C84.2014 50.49 84.4534 51.042 84.8374 51.462C85.2334 51.882 85.8094 52.092 86.5654 52.092C87.3214 52.092 87.8914 51.882 88.2754 51.462C88.6714 51.042 88.9294 50.49 89.0494 49.806C89.1694 49.122 89.2294 48.276 89.2294 47.268Z" fill="#1E1E1E" fill-opacity="0.5"/>
</svg>
